<svg width="21" height="21" viewBox="0 0 21 21" fill="none" xmlns="http://www.w3.org/2000/svg">
<g clip-path="url(#clip0_308_3088)">
<path d="M10.5002 19.0971C15.0157 19.0971 18.6762 15.4366 18.6762 10.9211C18.6762 6.40566 15.0157 2.74512 10.5002 2.74512C5.98474 2.74512 2.32422 6.40566 2.32422 10.9211C2.32422 15.4366 5.98474 19.0971 10.5002 19.0971Z" stroke="#448FFF" stroke-width="1.4" stroke-miterlimit="10"/>
<path d="M12.5352 14.6317C12.8924 14.3008 13.2492 13.9574 13.6037 13.603C18.6905 8.5159 21.4252 3.00295 19.7114 1.28908C18.5925 0.170213 15.8541 0.947574 12.672 3.03762" stroke="#448FFF" stroke-width="1.4" stroke-miterlimit="10"/>
<path d="M2.66249 13.2598C0.857584 16.1877 0.239373 18.6615 1.28861 19.7108C2.57146 20.9936 5.98324 19.784 9.75158 16.9606" stroke="#448FFF" stroke-width="1.4" stroke-miterlimit="10"/>
<path d="M11.22 17.6774C12.198 17.6774 12.9909 16.8846 12.9909 15.9066C12.9909 14.9286 12.198 14.1357 11.22 14.1357C10.242 14.1357 9.44922 14.9286 9.44922 15.9066C9.44922 16.8846 10.242 17.6774 11.22 17.6774Z" stroke="#448FFF" stroke-width="1.4" stroke-miterlimit="10"/>
</g>
<defs>
<clipPath id="clip0_308_3088">
<rect width="21" height="21" fill="white"/>
</clipPath>
</defs>
</svg>
