<svg width="41" height="41" viewBox="0 0 41 41" fill="none" xmlns="http://www.w3.org/2000/svg">
<rect width="41" height="41" rx="14" fill="white"/>
<g clip-path="url(#clip0_308_3086)">
<path d="M20.5002 29.0971C25.0157 29.0971 28.6762 25.4366 28.6762 20.9211C28.6762 16.4057 25.0157 12.7451 20.5002 12.7451C15.9847 12.7451 12.3242 16.4057 12.3242 20.9211C12.3242 25.4366 15.9847 29.0971 20.5002 29.0971Z" stroke="#448FFF" stroke-width="1.4" stroke-miterlimit="10"/>
<path d="M22.5352 24.6317C22.8924 24.3008 23.2492 23.9574 23.6037 23.603C28.6905 18.5159 31.4252 13.003 29.7114 11.2891C28.5925 10.1702 25.8541 10.9476 22.672 13.0376" stroke="#448FFF" stroke-width="1.4" stroke-miterlimit="10"/>
<path d="M12.6625 23.2598C10.8576 26.1877 10.2394 28.6615 11.2886 29.7108C12.5715 30.9936 15.9832 29.784 19.7516 26.9606" stroke="#448FFF" stroke-width="1.4" stroke-miterlimit="10"/>
<path d="M21.22 27.6774C22.198 27.6774 22.9909 26.8846 22.9909 25.9066C22.9909 24.9286 22.198 24.1357 21.22 24.1357C20.242 24.1357 19.4492 24.9286 19.4492 25.9066C19.4492 26.8846 20.242 27.6774 21.22 27.6774Z" stroke="#448FFF" stroke-width="1.4" stroke-miterlimit="10"/>
</g>
<defs>
<clipPath id="clip0_308_3086">
<rect width="21" height="21" fill="white" transform="translate(10 10)"/>
</clipPath>
</defs>
</svg>
